<?xml version="1.0" encoding="utf-8" standalone="no"?>
<!DOCTYPE svg PUBLIC "-//W3C//DTD SVG 1.1//EN"
  "http://www.w3.org/Graphics/SVG/1.1/DTD/svg11.dtd">
<!-- Created with matplotlib (http://matplotlib.org/) -->
<svg height="108pt" version="1.1" viewBox="0 0 288 108" width="288pt" xmlns="http://www.w3.org/2000/svg" xmlns:xlink="http://www.w3.org/1999/xlink">
 <defs>
  <style type="text/css">
*{stroke-linecap:butt;stroke-linejoin:round;}
  </style>
 </defs>
 <g id="figure_1">
  <g id="patch_1">
   <path d="M 0 108 
L 288 108 
L 288 0 
L 0 0 
z
" style="fill:#ffffff;"/>
  </g>
  <g id="axes_1">
   <g id="patch_2">
    <path d="M 36 96.12 
L 259.2 96.12 
L 259.2 12.96 
L 36 12.96 
z
" style="fill:#ffffff;"/>
   </g>
   <g id="matplotlib.axis_1">
    <g id="xtick_1">
     <g id="line2d_1">
      <defs>
       <path d="M 0 0 
L 0 3.5 
" id="mf2ac2411fb" style="stroke:#000000;stroke-width:0.8;"/>
      </defs>
      <g>
       <use style="stroke:#000000;stroke-width:0.8;" x="36" xlink:href="#mf2ac2411fb" y="96.12"/>
      </g>
     </g>
     <g id="text_1">
      <!-- 0 -->
      <defs>
       <path d="M 31.78125 66.40625 
Q 24.171875 66.40625 20.328125 58.90625 
Q 16.5 51.421875 16.5 36.375 
Q 16.5 21.390625 20.328125 13.890625 
Q 24.171875 6.390625 31.78125 6.390625 
Q 39.453125 6.390625 43.28125 13.890625 
Q 47.125 21.390625 47.125 36.375 
Q 47.125 51.421875 43.28125 58.90625 
Q 39.453125 66.40625 31.78125 66.40625 
z
M 31.78125 74.21875 
Q 44.046875 74.21875 50.515625 64.515625 
Q 56.984375 54.828125 56.984375 36.375 
Q 56.984375 17.96875 50.515625 8.265625 
Q 44.046875 -1.421875 31.78125 -1.421875 
Q 19.53125 -1.421875 13.0625 8.265625 
Q 6.59375 17.96875 6.59375 36.375 
Q 6.59375 54.828125 13.0625 64.515625 
Q 19.53125 74.21875 31.78125 74.21875 
z
" id="DejaVuSans-30"/>
      </defs>
      <g transform="translate(32.1825 112.238125)scale(0.12 -0.12)">
       <use xlink:href="#DejaVuSans-30"/>
      </g>
     </g>
    </g>
    <g id="xtick_2">
     <g id="line2d_2">
      <g>
       <use style="stroke:#000000;stroke-width:0.8;" x="98.837838" xlink:href="#mf2ac2411fb" y="96.12"/>
      </g>
     </g>
     <g id="text_2">
      <!-- 0.5 -->
      <defs>
       <path d="M 10.6875 12.40625 
L 21 12.40625 
L 21 0 
L 10.6875 0 
z
" id="DejaVuSans-2e"/>
       <path d="M 10.796875 72.90625 
L 49.515625 72.90625 
L 49.515625 64.59375 
L 19.828125 64.59375 
L 19.828125 46.734375 
Q 21.96875 47.46875 24.109375 47.828125 
Q 26.265625 48.1875 28.421875 48.1875 
Q 40.625 48.1875 47.75 41.5 
Q 54.890625 34.8125 54.890625 23.390625 
Q 54.890625 11.625 47.5625 5.09375 
Q 40.234375 -1.421875 26.90625 -1.421875 
Q 22.3125 -1.421875 17.546875 -0.640625 
Q 12.796875 0.140625 7.71875 1.703125 
L 7.71875 11.625 
Q 12.109375 9.234375 16.796875 8.0625 
Q 21.484375 6.890625 26.703125 6.890625 
Q 35.15625 6.890625 40.078125 11.328125 
Q 45.015625 15.765625 45.015625 23.390625 
Q 45.015625 31 40.078125 35.4375 
Q 35.15625 39.890625 26.703125 39.890625 
Q 22.75 39.890625 18.8125 39.015625 
Q 14.890625 38.140625 10.796875 36.28125 
z
" id="DejaVuSans-35"/>
      </defs>
      <g transform="translate(89.295963 112.238125)scale(0.12 -0.12)">
       <use xlink:href="#DejaVuSans-30"/>
       <use x="63.623047" xlink:href="#DejaVuSans-2e"/>
       <use x="95.410156" xlink:href="#DejaVuSans-35"/>
      </g>
     </g>
    </g>
    <g id="xtick_3">
     <g id="line2d_3">
      <g>
       <use style="stroke:#000000;stroke-width:0.8;" x="161.675676" xlink:href="#mf2ac2411fb" y="96.12"/>
      </g>
     </g>
     <g id="text_3">
      <!-- 1 -->
      <defs>
       <path d="M 12.40625 8.296875 
L 28.515625 8.296875 
L 28.515625 63.921875 
L 10.984375 60.40625 
L 10.984375 69.390625 
L 28.421875 72.90625 
L 38.28125 72.90625 
L 38.28125 8.296875 
L 54.390625 8.296875 
L 54.390625 0 
L 12.40625 0 
z
" id="DejaVuSans-31"/>
      </defs>
      <g transform="translate(157.858176 112.238125)scale(0.12 -0.12)">
       <use xlink:href="#DejaVuSans-31"/>
      </g>
     </g>
    </g>
    <g id="xtick_4">
     <g id="line2d_4">
      <g>
       <use style="stroke:#000000;stroke-width:0.8;" x="224.513514" xlink:href="#mf2ac2411fb" y="96.12"/>
      </g>
     </g>
     <g id="text_4">
      <!-- 1.5 -->
      <g transform="translate(214.971639 112.238125)scale(0.12 -0.12)">
       <use xlink:href="#DejaVuSans-31"/>
       <use x="63.623047" xlink:href="#DejaVuSans-2e"/>
       <use x="95.410156" xlink:href="#DejaVuSans-35"/>
      </g>
     </g>
    </g>
    <g id="text_5">
     <!-- Time -->
     <defs>
      <path d="M -0.296875 72.90625 
L 61.375 72.90625 
L 61.375 64.59375 
L 35.5 64.59375 
L 35.5 0 
L 25.59375 0 
L 25.59375 64.59375 
L -0.296875 64.59375 
z
" id="DejaVuSans-54"/>
      <path d="M 9.421875 54.6875 
L 18.40625 54.6875 
L 18.40625 0 
L 9.421875 0 
z
M 9.421875 75.984375 
L 18.40625 75.984375 
L 18.40625 64.59375 
L 9.421875 64.59375 
z
" id="DejaVuSans-69"/>
      <path d="M 52 44.1875 
Q 55.375 50.25 60.0625 53.125 
Q 64.75 56 71.09375 56 
Q 79.640625 56 84.28125 50.015625 
Q 88.921875 44.046875 88.921875 33.015625 
L 88.921875 0 
L 79.890625 0 
L 79.890625 32.71875 
Q 79.890625 40.578125 77.09375 44.375 
Q 74.3125 48.1875 68.609375 48.1875 
Q 61.625 48.1875 57.5625 43.546875 
Q 53.515625 38.921875 53.515625 30.90625 
L 53.515625 0 
L 44.484375 0 
L 44.484375 32.71875 
Q 44.484375 40.625 41.703125 44.40625 
Q 38.921875 48.1875 33.109375 48.1875 
Q 26.21875 48.1875 22.15625 43.53125 
Q 18.109375 38.875 18.109375 30.90625 
L 18.109375 0 
L 9.078125 0 
L 9.078125 54.6875 
L 18.109375 54.6875 
L 18.109375 46.1875 
Q 21.1875 51.21875 25.484375 53.609375 
Q 29.78125 56 35.6875 56 
Q 41.65625 56 45.828125 52.96875 
Q 50 49.953125 52 44.1875 
z
" id="DejaVuSans-6d"/>
      <path d="M 56.203125 29.59375 
L 56.203125 25.203125 
L 14.890625 25.203125 
Q 15.484375 15.921875 20.484375 11.0625 
Q 25.484375 6.203125 34.421875 6.203125 
Q 39.59375 6.203125 44.453125 7.46875 
Q 49.3125 8.734375 54.109375 11.28125 
L 54.109375 2.78125 
Q 49.265625 0.734375 44.1875 -0.34375 
Q 39.109375 -1.421875 33.890625 -1.421875 
Q 20.796875 -1.421875 13.15625 6.1875 
Q 5.515625 13.8125 5.515625 26.8125 
Q 5.515625 40.234375 12.765625 48.109375 
Q 20.015625 56 32.328125 56 
Q 43.359375 56 49.78125 48.890625 
Q 56.203125 41.796875 56.203125 29.59375 
z
M 47.21875 32.234375 
Q 47.125 39.59375 43.09375 43.984375 
Q 39.0625 48.390625 32.421875 48.390625 
Q 24.90625 48.390625 20.390625 44.140625 
Q 15.875 39.890625 15.1875 32.171875 
z
" id="DejaVuSans-65"/>
     </defs>
     <g transform="translate(132.735 127.851875)scale(0.12 -0.12)">
      <use xlink:href="#DejaVuSans-54"/>
      <use x="61.037109" xlink:href="#DejaVuSans-69"/>
      <use x="88.820312" xlink:href="#DejaVuSans-6d"/>
      <use x="186.232422" xlink:href="#DejaVuSans-65"/>
     </g>
    </g>
   </g>
   <g id="matplotlib.axis_2">
    <g id="ytick_1">
     <g id="line2d_5">
      <defs>
       <path d="M 0 0 
L -3.5 0 
" id="m67aab2cbe9" style="stroke:#000000;stroke-width:0.8;"/>
      </defs>
      <g>
       <use style="stroke:#000000;stroke-width:0.8;" x="36" xlink:href="#m67aab2cbe9" y="96.12"/>
      </g>
     </g>
     <g id="text_6">
      <!-- 0 -->
      <g transform="translate(21.365 100.679063)scale(0.12 -0.12)">
       <use xlink:href="#DejaVuSans-30"/>
      </g>
     </g>
    </g>
    <g id="ytick_2">
     <g id="line2d_6">
      <g>
       <use style="stroke:#000000;stroke-width:0.8;" x="36" xlink:href="#m67aab2cbe9" y="60.408739"/>
      </g>
     </g>
     <g id="text_7">
      <!-- 5 -->
      <g transform="translate(21.365 64.967802)scale(0.12 -0.12)">
       <use xlink:href="#DejaVuSans-35"/>
      </g>
     </g>
    </g>
    <g id="ytick_3">
     <g id="line2d_7">
      <g>
       <use style="stroke:#000000;stroke-width:0.8;" x="36" xlink:href="#m67aab2cbe9" y="24.697478"/>
      </g>
     </g>
     <g id="text_8">
      <!-- 10 -->
      <g transform="translate(13.73 29.256541)scale(0.12 -0.12)">
       <use xlink:href="#DejaVuSans-31"/>
       <use x="63.623047" xlink:href="#DejaVuSans-30"/>
      </g>
     </g>
    </g>
    <g id="text_9">
     <!-- Avg. Choice d' -->
     <defs>
      <path d="M 34.1875 63.1875 
L 20.796875 26.90625 
L 47.609375 26.90625 
z
M 28.609375 72.90625 
L 39.796875 72.90625 
L 67.578125 0 
L 57.328125 0 
L 50.6875 18.703125 
L 17.828125 18.703125 
L 11.1875 0 
L 0.78125 0 
z
" id="DejaVuSans-41"/>
      <path d="M 2.984375 54.6875 
L 12.5 54.6875 
L 29.59375 8.796875 
L 46.6875 54.6875 
L 56.203125 54.6875 
L 35.6875 0 
L 23.484375 0 
z
" id="DejaVuSans-76"/>
      <path d="M 45.40625 27.984375 
Q 45.40625 37.75 41.375 43.109375 
Q 37.359375 48.484375 30.078125 48.484375 
Q 22.859375 48.484375 18.828125 43.109375 
Q 14.796875 37.75 14.796875 27.984375 
Q 14.796875 18.265625 18.828125 12.890625 
Q 22.859375 7.515625 30.078125 7.515625 
Q 37.359375 7.515625 41.375 12.890625 
Q 45.40625 18.265625 45.40625 27.984375 
z
M 54.390625 6.78125 
Q 54.390625 -7.171875 48.1875 -13.984375 
Q 42 -20.796875 29.203125 -20.796875 
Q 24.46875 -20.796875 20.265625 -20.09375 
Q 16.0625 -19.390625 12.109375 -17.921875 
L 12.109375 -9.1875 
Q 16.0625 -11.328125 19.921875 -12.34375 
Q 23.78125 -13.375 27.78125 -13.375 
Q 36.625 -13.375 41.015625 -8.765625 
Q 45.40625 -4.15625 45.40625 5.171875 
L 45.40625 9.625 
Q 42.625 4.78125 38.28125 2.390625 
Q 33.9375 0 27.875 0 
Q 17.828125 0 11.671875 7.65625 
Q 5.515625 15.328125 5.515625 27.984375 
Q 5.515625 40.671875 11.671875 48.328125 
Q 17.828125 56 27.875 56 
Q 33.9375 56 38.28125 53.609375 
Q 42.625 51.21875 45.40625 46.390625 
L 45.40625 54.6875 
L 54.390625 54.6875 
z
" id="DejaVuSans-67"/>
      <path id="DejaVuSans-20"/>
      <path d="M 64.40625 67.28125 
L 64.40625 56.890625 
Q 59.421875 61.53125 53.78125 63.8125 
Q 48.140625 66.109375 41.796875 66.109375 
Q 29.296875 66.109375 22.65625 58.46875 
Q 16.015625 50.828125 16.015625 36.375 
Q 16.015625 21.96875 22.65625 14.328125 
Q 29.296875 6.6875 41.796875 6.6875 
Q 48.140625 6.6875 53.78125 8.984375 
Q 59.421875 11.28125 64.40625 15.921875 
L 64.40625 5.609375 
Q 59.234375 2.09375 53.4375 0.328125 
Q 47.65625 -1.421875 41.21875 -1.421875 
Q 24.65625 -1.421875 15.125 8.703125 
Q 5.609375 18.84375 5.609375 36.375 
Q 5.609375 53.953125 15.125 64.078125 
Q 24.65625 74.21875 41.21875 74.21875 
Q 47.75 74.21875 53.53125 72.484375 
Q 59.328125 70.75 64.40625 67.28125 
z
" id="DejaVuSans-43"/>
      <path d="M 54.890625 33.015625 
L 54.890625 0 
L 45.90625 0 
L 45.90625 32.71875 
Q 45.90625 40.484375 42.875 44.328125 
Q 39.84375 48.1875 33.796875 48.1875 
Q 26.515625 48.1875 22.3125 43.546875 
Q 18.109375 38.921875 18.109375 30.90625 
L 18.109375 0 
L 9.078125 0 
L 9.078125 75.984375 
L 18.109375 75.984375 
L 18.109375 46.1875 
Q 21.34375 51.125 25.703125 53.5625 
Q 30.078125 56 35.796875 56 
Q 45.21875 56 50.046875 50.171875 
Q 54.890625 44.34375 54.890625 33.015625 
z
" id="DejaVuSans-68"/>
      <path d="M 30.609375 48.390625 
Q 23.390625 48.390625 19.1875 42.75 
Q 14.984375 37.109375 14.984375 27.296875 
Q 14.984375 17.484375 19.15625 11.84375 
Q 23.34375 6.203125 30.609375 6.203125 
Q 37.796875 6.203125 41.984375 11.859375 
Q 46.1875 17.53125 46.1875 27.296875 
Q 46.1875 37.015625 41.984375 42.703125 
Q 37.796875 48.390625 30.609375 48.390625 
z
M 30.609375 56 
Q 42.328125 56 49.015625 48.375 
Q 55.71875 40.765625 55.71875 27.296875 
Q 55.71875 13.875 49.015625 6.21875 
Q 42.328125 -1.421875 30.609375 -1.421875 
Q 18.84375 -1.421875 12.171875 6.21875 
Q 5.515625 13.875 5.515625 27.296875 
Q 5.515625 40.765625 12.171875 48.375 
Q 18.84375 56 30.609375 56 
z
" id="DejaVuSans-6f"/>
      <path d="M 48.78125 52.59375 
L 48.78125 44.1875 
Q 44.96875 46.296875 41.140625 47.34375 
Q 37.3125 48.390625 33.40625 48.390625 
Q 24.65625 48.390625 19.8125 42.84375 
Q 14.984375 37.3125 14.984375 27.296875 
Q 14.984375 17.28125 19.8125 11.734375 
Q 24.65625 6.203125 33.40625 6.203125 
Q 37.3125 6.203125 41.140625 7.25 
Q 44.96875 8.296875 48.78125 10.40625 
L 48.78125 2.09375 
Q 45.015625 0.34375 40.984375 -0.53125 
Q 36.96875 -1.421875 32.421875 -1.421875 
Q 20.0625 -1.421875 12.78125 6.34375 
Q 5.515625 14.109375 5.515625 27.296875 
Q 5.515625 40.671875 12.859375 48.328125 
Q 20.21875 56 33.015625 56 
Q 37.15625 56 41.109375 55.140625 
Q 45.0625 54.296875 48.78125 52.59375 
z
" id="DejaVuSans-63"/>
      <path d="M 45.40625 46.390625 
L 45.40625 75.984375 
L 54.390625 75.984375 
L 54.390625 0 
L 45.40625 0 
L 45.40625 8.203125 
Q 42.578125 3.328125 38.25 0.953125 
Q 33.9375 -1.421875 27.875 -1.421875 
Q 17.96875 -1.421875 11.734375 6.484375 
Q 5.515625 14.40625 5.515625 27.296875 
Q 5.515625 40.1875 11.734375 48.09375 
Q 17.96875 56 27.875 56 
Q 33.9375 56 38.25 53.625 
Q 42.578125 51.265625 45.40625 46.390625 
z
M 14.796875 27.296875 
Q 14.796875 17.390625 18.875 11.75 
Q 22.953125 6.109375 30.078125 6.109375 
Q 37.203125 6.109375 41.296875 11.75 
Q 45.40625 17.390625 45.40625 27.296875 
Q 45.40625 37.203125 41.296875 42.84375 
Q 37.203125 48.484375 30.078125 48.484375 
Q 22.953125 48.484375 18.875 42.84375 
Q 14.796875 37.203125 14.796875 27.296875 
z
" id="DejaVuSans-64"/>
      <path d="M 17.921875 72.90625 
L 17.921875 45.796875 
L 9.625 45.796875 
L 9.625 72.90625 
z
" id="DejaVuSans-27"/>
     </defs>
     <g transform="translate(7.234375 97.5)rotate(-90)scale(0.12 -0.12)">
      <use xlink:href="#DejaVuSans-41"/>
      <use x="68.330078" xlink:href="#DejaVuSans-76"/>
      <use x="127.509766" xlink:href="#DejaVuSans-67"/>
      <use x="190.986328" xlink:href="#DejaVuSans-2e"/>
      <use x="222.773438" xlink:href="#DejaVuSans-20"/>
      <use x="254.560547" xlink:href="#DejaVuSans-43"/>
      <use x="324.384766" xlink:href="#DejaVuSans-68"/>
      <use x="387.763672" xlink:href="#DejaVuSans-6f"/>
      <use x="448.945312" xlink:href="#DejaVuSans-69"/>
      <use x="476.728516" xlink:href="#DejaVuSans-63"/>
      <use x="531.708984" xlink:href="#DejaVuSans-65"/>
      <use x="593.232422" xlink:href="#DejaVuSans-20"/>
      <use x="625.019531" xlink:href="#DejaVuSans-64"/>
      <use x="688.496094" xlink:href="#DejaVuSans-27"/>
     </g>
    </g>
   </g>
   <g id="line2d_8">
    <path clip-path="url(#p04acabb68d)" d="M 39.016216 95.806254 
L 42.032432 95.560053 
L 45.048649 95.395779 
L 48.064865 95.232397 
L 51.081081 95.0912 
L 54.097297 95.003785 
L 57.113514 94.959962 
L 60.12973 94.899724 
L 63.145946 94.854161 
L 66.162162 94.800813 
L 69.178378 94.78399 
L 72.194595 94.729139 
L 75.210811 94.711025 
L 78.227027 94.672097 
L 81.243243 94.660957 
L 84.259459 94.64379 
L 87.275676 94.618196 
L 90.291892 94.592963 
L 93.308108 94.602025 
L 96.324324 94.578356 
L 99.340541 94.596462 
L 102.356757 94.605595 
L 105.372973 94.564499 
L 108.389189 94.561383 
L 111.405405 94.515076 
L 114.421622 94.499746 
L 117.437838 94.453653 
L 120.454054 94.429038 
L 123.47027 94.404722 
L 126.486486 94.368438 
L 129.502703 94.371854 
L 132.518919 94.337631 
L 135.535135 94.296015 
L 138.551351 94.272953 
L 141.567568 94.238369 
L 144.583784 94.188905 
L 147.6 94.122113 
L 150.616216 94.061551 
L 153.632432 94.015164 
L 156.648649 93.977239 
L 159.664865 93.916035 
L 162.681081 93.84054 
L 165.697297 93.77159 
L 168.713514 93.660304 
L 171.72973 93.600426 
L 174.745946 93.49492 
L 177.762162 93.408197 
L 180.778378 93.312192 
L 183.794595 93.179168 
L 186.810811 93.03869 
L 189.827027 93.046211 
L 192.843243 92.270827 
L 195.859459 91.107389 
L 198.875676 89.906494 
L 201.891892 88.755696 
L 204.908108 87.548046 
L 207.924324 86.253988 
L 210.940541 84.9284 
L 213.956757 83.494663 
L 216.972973 81.981228 
L 219.989189 80.361386 
L 223.005405 78.609948 
L 226.021622 76.697792 
L 229.037838 74.600205 
L 232.054054 72.282624 
L 235.07027 69.708648 
L 238.086486 66.830644 
L 241.102703 63.504571 
L 244.118919 59.74125 
L 247.135135 55.405972 
L 250.151351 50.305491 
L 253.167568 43.997198 
L 256.183784 35.673885 
L 259.2 22.936637 
" style="fill:none;stroke:#000000;stroke-linecap:square;stroke-width:1.5;"/>
   </g>
   <g id="line2d_9">
    <path clip-path="url(#p04acabb68d)" d="M 39.016216 95.868006 
L 42.032432 95.637208 
L 45.048649 95.481424 
L 48.064865 95.328749 
L 51.081081 95.195648 
L 54.097297 95.113979 
L 57.113514 95.075684 
L 60.12973 95.020648 
L 63.145946 94.977091 
L 66.162162 94.925282 
L 69.178378 94.910316 
L 72.194595 94.857208 
L 75.210811 94.840953 
L 78.227027 94.80344 
L 81.243243 94.793053 
L 84.259459 94.778125 
L 87.275676 94.754607 
L 90.291892 94.730334 
L 93.308108 94.74013 
L 96.324324 94.717054 
L 99.340541 94.735829 
L 102.356757 94.746932 
L 105.372973 94.705434 
L 108.389189 94.703952 
L 111.405405 94.658192 
L 114.421622 94.644502 
L 117.437838 94.599372 
L 120.454054 94.574868 
L 123.47027 94.550744 
L 126.486486 94.516245 
L 129.502703 94.522359 
L 132.518919 94.489287 
L 135.535135 94.448835 
L 138.551351 94.426957 
L 141.567568 94.393909 
L 144.583784 94.343781 
L 147.6 94.276726 
L 150.616216 94.216401 
L 153.632432 94.171826 
L 156.648649 94.133436 
L 159.664865 94.073637 
L 162.681081 93.999267 
L 165.697297 93.930783 
L 168.713514 93.820157 
L 171.72973 93.762143 
L 174.745946 93.657413 
L 177.762162 93.571863 
L 180.778378 93.47668 
L 183.794595 93.346579 
L 186.810811 93.207321 
L 189.827027 93.298631 
L 192.843243 92.554909 
L 195.859459 91.415785 
L 198.875676 90.229409 
L 201.891892 89.08076 
L 204.908108 87.876508 
L 207.924324 86.589627 
L 210.940541 85.275132 
L 213.956757 83.857226 
L 216.972973 82.361003 
L 219.989189 80.763745 
L 223.005405 79.042619 
L 226.021622 77.171021 
L 229.037838 75.127128 
L 232.054054 72.87728 
L 235.07027 70.389251 
L 238.086486 67.627265 
L 241.102703 64.456592 
L 244.118919 60.910842 
L 247.135135 56.876168 
L 250.151351 52.172187 
L 253.167568 46.479238 
L 256.183784 39.230739 
L 259.2 28.965274 
" style="fill:none;stroke:#b3b3b3;stroke-linecap:square;stroke-width:1.5;"/>
   </g>
   <g id="line2d_10">
    <path clip-path="url(#p04acabb68d)" d="M 39.016216 95.744503 
L 42.032432 95.482898 
L 45.048649 95.310133 
L 48.064865 95.136044 
L 51.081081 94.986753 
L 54.097297 94.893592 
L 57.113514 94.84424 
L 60.12973 94.778799 
L 63.145946 94.731231 
L 66.162162 94.676343 
L 69.178378 94.657664 
L 72.194595 94.601069 
L 75.210811 94.581096 
L 78.227027 94.540753 
L 81.243243 94.528861 
L 84.259459 94.509454 
L 87.275676 94.481784 
L 90.291892 94.455591 
L 93.308108 94.463921 
L 96.324324 94.439657 
L 99.340541 94.457095 
L 102.356757 94.464258 
L 105.372973 94.423564 
L 108.389189 94.418813 
L 111.405405 94.37196 
L 114.421622 94.354991 
L 117.437838 94.307934 
L 120.454054 94.283208 
L 123.47027 94.2587 
L 126.486486 94.220631 
L 129.502703 94.22135 
L 132.518919 94.185974 
L 135.535135 94.143195 
L 138.551351 94.118948 
L 141.567568 94.082828 
L 144.583784 94.034029 
L 147.6 93.9675 
L 150.616216 93.9067 
L 153.632432 93.858501 
L 156.648649 93.821041 
L 159.664865 93.758433 
L 162.681081 93.681813 
L 165.697297 93.612398 
L 168.713514 93.500451 
L 171.72973 93.438708 
L 174.745946 93.332427 
L 177.762162 93.24453 
L 180.778378 93.147704 
L 183.794595 93.011757 
L 186.810811 92.870058 
L 189.827027 92.79379 
L 192.843243 91.986746 
L 195.859459 90.798993 
L 198.875676 89.583579 
L 201.891892 88.430633 
L 204.908108 87.219584 
L 207.924324 85.918349 
L 210.940541 84.581668 
L 213.956757 83.1321 
L 216.972973 81.601453 
L 219.989189 79.959027 
L 223.005405 78.177277 
L 226.021622 76.224563 
L 229.037838 74.073283 
L 232.054054 71.687967 
L 235.07027 69.028045 
L 238.086486 66.034023 
L 241.102703 62.55255 
L 244.118919 58.571658 
L 247.135135 53.935776 
L 250.151351 48.438795 
L 253.167568 41.515158 
L 256.183784 32.11703 
L 259.2 16.908 
" style="fill:none;stroke:#b3b3b3;stroke-linecap:square;stroke-width:1.5;"/>
   </g>
   <g id="line2d_11">
    <path clip-path="url(#p04acabb68d)" d="M 186.810811 96.12 
L 186.810811 12.96 
" style="fill:none;stroke:#b3b3b3;stroke-linecap:square;stroke-width:1.5;"/>
   </g>
   <g id="patch_3">
    <path d="M 36 96.12 
L 36 12.96 
" style="fill:none;stroke:#000000;stroke-linecap:square;stroke-linejoin:miter;stroke-width:0.8;"/>
   </g>
   <g id="patch_4">
    <path d="M 259.2 96.12 
L 259.2 12.96 
" style="fill:none;stroke:#000000;stroke-linecap:square;stroke-linejoin:miter;stroke-width:0.8;"/>
   </g>
   <g id="patch_5">
    <path d="M 36 96.12 
L 259.2 96.12 
" style="fill:none;stroke:#000000;stroke-linecap:square;stroke-linejoin:miter;stroke-width:0.8;"/>
   </g>
   <g id="patch_6">
    <path d="M 36 12.96 
L 259.2 12.96 
" style="fill:none;stroke:#000000;stroke-linecap:square;stroke-linejoin:miter;stroke-width:0.8;"/>
   </g>
  </g>
 </g>
 <defs>
  <clipPath id="p04acabb68d">
   <rect height="83.16" width="223.2" x="36" y="12.96"/>
  </clipPath>
 </defs>
</svg>
