<?xml version="1.0" encoding="utf-8" standalone="no"?>
<!DOCTYPE svg PUBLIC "-//W3C//DTD SVG 1.1//EN"
  "http://www.w3.org/Graphics/SVG/1.1/DTD/svg11.dtd">
<!-- Created with matplotlib (http://matplotlib.org/) -->
<svg height="396pt" version="1.1" viewBox="0 0 432 396" width="432pt" xmlns="http://www.w3.org/2000/svg" xmlns:xlink="http://www.w3.org/1999/xlink">
 <defs>
  <style type="text/css">
*{stroke-linecap:butt;stroke-linejoin:round;}
  </style>
 </defs>
 <g id="figure_1">
  <g id="patch_1">
   <path d="M 0 396 
L 432 396 
L 432 0 
L 0 0 
z
" style="fill:#ffffff;"/>
  </g>
  <g id="axes_1">
   <g id="patch_2">
    <path d="M 54 352.44 
L 388.8 352.44 
L 388.8 47.52 
L 54 47.52 
z
" style="fill:#ffffff;"/>
   </g>
   <g id="matplotlib.axis_1">
    <g id="xtick_1">
     <g id="line2d_1">
      <defs>
       <path d="M 0 0 
L 0 3.5 
" id="m273ef7896c" style="stroke:#000000;stroke-width:0.8;"/>
      </defs>
      <g>
       <use style="stroke:#000000;stroke-width:0.8;" x="98.142085" xlink:href="#m273ef7896c" y="352.44"/>
      </g>
     </g>
     <g id="text_1">
      <!-- -0.05 -->
      <defs>
       <path d="M 4.890625 31.390625 
L 31.203125 31.390625 
L 31.203125 23.390625 
L 4.890625 23.390625 
z
" id="DejaVuSans-2d"/>
       <path d="M 31.78125 66.40625 
Q 24.171875 66.40625 20.328125 58.90625 
Q 16.5 51.421875 16.5 36.375 
Q 16.5 21.390625 20.328125 13.890625 
Q 24.171875 6.390625 31.78125 6.390625 
Q 39.453125 6.390625 43.28125 13.890625 
Q 47.125 21.390625 47.125 36.375 
Q 47.125 51.421875 43.28125 58.90625 
Q 39.453125 66.40625 31.78125 66.40625 
z
M 31.78125 74.21875 
Q 44.046875 74.21875 50.515625 64.515625 
Q 56.984375 54.828125 56.984375 36.375 
Q 56.984375 17.96875 50.515625 8.265625 
Q 44.046875 -1.421875 31.78125 -1.421875 
Q 19.53125 -1.421875 13.0625 8.265625 
Q 6.59375 17.96875 6.59375 36.375 
Q 6.59375 54.828125 13.0625 64.515625 
Q 19.53125 74.21875 31.78125 74.21875 
z
" id="DejaVuSans-30"/>
       <path d="M 10.6875 12.40625 
L 21 12.40625 
L 21 0 
L 10.6875 0 
z
" id="DejaVuSans-2e"/>
       <path d="M 10.796875 72.90625 
L 49.515625 72.90625 
L 49.515625 64.59375 
L 19.828125 64.59375 
L 19.828125 46.734375 
Q 21.96875 47.46875 24.109375 47.828125 
Q 26.265625 48.1875 28.421875 48.1875 
Q 40.625 48.1875 47.75 41.5 
Q 54.890625 34.8125 54.890625 23.390625 
Q 54.890625 11.625 47.5625 5.09375 
Q 40.234375 -1.421875 26.90625 -1.421875 
Q 22.3125 -1.421875 17.546875 -0.640625 
Q 12.796875 0.140625 7.71875 1.703125 
L 7.71875 11.625 
Q 12.109375 9.234375 16.796875 8.0625 
Q 21.484375 6.890625 26.703125 6.890625 
Q 35.15625 6.890625 40.078125 11.328125 
Q 45.015625 15.765625 45.015625 23.390625 
Q 45.015625 31 40.078125 35.4375 
Q 35.15625 39.890625 26.703125 39.890625 
Q 22.75 39.890625 18.8125 39.015625 
Q 14.890625 38.140625 10.796875 36.28125 
z
" id="DejaVuSans-35"/>
      </defs>
      <g transform="translate(82.618023 368.558125)scale(0.12 -0.12)">
       <use xlink:href="#DejaVuSans-2d"/>
       <use x="36.083984" xlink:href="#DejaVuSans-30"/>
       <use x="99.707031" xlink:href="#DejaVuSans-2e"/>
       <use x="131.494141" xlink:href="#DejaVuSans-30"/>
       <use x="195.117188" xlink:href="#DejaVuSans-35"/>
      </g>
     </g>
    </g>
    <g id="xtick_2">
     <g id="line2d_2">
      <g>
       <use style="stroke:#000000;stroke-width:0.8;" x="178.713863" xlink:href="#m273ef7896c" y="352.44"/>
      </g>
     </g>
     <g id="text_2">
      <!-- 0 -->
      <g transform="translate(174.896363 368.558125)scale(0.12 -0.12)">
       <use xlink:href="#DejaVuSans-30"/>
      </g>
     </g>
    </g>
    <g id="xtick_3">
     <g id="line2d_3">
      <g>
       <use style="stroke:#000000;stroke-width:0.8;" x="259.285641" xlink:href="#m273ef7896c" y="352.44"/>
      </g>
     </g>
     <g id="text_3">
      <!-- 0.05 -->
      <g transform="translate(245.926266 368.558125)scale(0.12 -0.12)">
       <use xlink:href="#DejaVuSans-30"/>
       <use x="63.623047" xlink:href="#DejaVuSans-2e"/>
       <use x="95.410156" xlink:href="#DejaVuSans-30"/>
       <use x="159.033203" xlink:href="#DejaVuSans-35"/>
      </g>
     </g>
    </g>
    <g id="xtick_4">
     <g id="line2d_4">
      <g>
       <use style="stroke:#000000;stroke-width:0.8;" x="339.857419" xlink:href="#m273ef7896c" y="352.44"/>
      </g>
     </g>
     <g id="text_4">
      <!-- 0.10 -->
      <defs>
       <path d="M 12.40625 8.296875 
L 28.515625 8.296875 
L 28.515625 63.921875 
L 10.984375 60.40625 
L 10.984375 69.390625 
L 28.421875 72.90625 
L 38.28125 72.90625 
L 38.28125 8.296875 
L 54.390625 8.296875 
L 54.390625 0 
L 12.40625 0 
z
" id="DejaVuSans-31"/>
      </defs>
      <g transform="translate(326.498044 368.558125)scale(0.12 -0.12)">
       <use xlink:href="#DejaVuSans-30"/>
       <use x="63.623047" xlink:href="#DejaVuSans-2e"/>
       <use x="95.410156" xlink:href="#DejaVuSans-31"/>
       <use x="159.033203" xlink:href="#DejaVuSans-30"/>
      </g>
     </g>
    </g>
    <g id="text_5">
     <!-- SVD Dimension 1 -->
     <defs>
      <path d="M 53.515625 70.515625 
L 53.515625 60.890625 
Q 47.90625 63.578125 42.921875 64.890625 
Q 37.9375 66.21875 33.296875 66.21875 
Q 25.25 66.21875 20.875 63.09375 
Q 16.5 59.96875 16.5 54.203125 
Q 16.5 49.359375 19.40625 46.890625 
Q 22.3125 44.4375 30.421875 42.921875 
L 36.375 41.703125 
Q 47.40625 39.59375 52.65625 34.296875 
Q 57.90625 29 57.90625 20.125 
Q 57.90625 9.515625 50.796875 4.046875 
Q 43.703125 -1.421875 29.984375 -1.421875 
Q 24.8125 -1.421875 18.96875 -0.25 
Q 13.140625 0.921875 6.890625 3.21875 
L 6.890625 13.375 
Q 12.890625 10.015625 18.65625 8.296875 
Q 24.421875 6.59375 29.984375 6.59375 
Q 38.421875 6.59375 43.015625 9.90625 
Q 47.609375 13.234375 47.609375 19.390625 
Q 47.609375 24.75 44.3125 27.78125 
Q 41.015625 30.8125 33.5 32.328125 
L 27.484375 33.5 
Q 16.453125 35.6875 11.515625 40.375 
Q 6.59375 45.0625 6.59375 53.421875 
Q 6.59375 63.09375 13.40625 68.65625 
Q 20.21875 74.21875 32.171875 74.21875 
Q 37.3125 74.21875 42.625 73.28125 
Q 47.953125 72.359375 53.515625 70.515625 
z
" id="DejaVuSans-53"/>
      <path d="M 28.609375 0 
L 0.78125 72.90625 
L 11.078125 72.90625 
L 34.1875 11.53125 
L 57.328125 72.90625 
L 67.578125 72.90625 
L 39.796875 0 
z
" id="DejaVuSans-56"/>
      <path d="M 19.671875 64.796875 
L 19.671875 8.109375 
L 31.59375 8.109375 
Q 46.6875 8.109375 53.6875 14.9375 
Q 60.6875 21.78125 60.6875 36.53125 
Q 60.6875 51.171875 53.6875 57.984375 
Q 46.6875 64.796875 31.59375 64.796875 
z
M 9.8125 72.90625 
L 30.078125 72.90625 
Q 51.265625 72.90625 61.171875 64.09375 
Q 71.09375 55.28125 71.09375 36.53125 
Q 71.09375 17.671875 61.125 8.828125 
Q 51.171875 0 30.078125 0 
L 9.8125 0 
z
" id="DejaVuSans-44"/>
      <path id="DejaVuSans-20"/>
      <path d="M 9.421875 54.6875 
L 18.40625 54.6875 
L 18.40625 0 
L 9.421875 0 
z
M 9.421875 75.984375 
L 18.40625 75.984375 
L 18.40625 64.59375 
L 9.421875 64.59375 
z
" id="DejaVuSans-69"/>
      <path d="M 52 44.1875 
Q 55.375 50.25 60.0625 53.125 
Q 64.75 56 71.09375 56 
Q 79.640625 56 84.28125 50.015625 
Q 88.921875 44.046875 88.921875 33.015625 
L 88.921875 0 
L 79.890625 0 
L 79.890625 32.71875 
Q 79.890625 40.578125 77.09375 44.375 
Q 74.3125 48.1875 68.609375 48.1875 
Q 61.625 48.1875 57.5625 43.546875 
Q 53.515625 38.921875 53.515625 30.90625 
L 53.515625 0 
L 44.484375 0 
L 44.484375 32.71875 
Q 44.484375 40.625 41.703125 44.40625 
Q 38.921875 48.1875 33.109375 48.1875 
Q 26.21875 48.1875 22.15625 43.53125 
Q 18.109375 38.875 18.109375 30.90625 
L 18.109375 0 
L 9.078125 0 
L 9.078125 54.6875 
L 18.109375 54.6875 
L 18.109375 46.1875 
Q 21.1875 51.21875 25.484375 53.609375 
Q 29.78125 56 35.6875 56 
Q 41.65625 56 45.828125 52.96875 
Q 50 49.953125 52 44.1875 
z
" id="DejaVuSans-6d"/>
      <path d="M 56.203125 29.59375 
L 56.203125 25.203125 
L 14.890625 25.203125 
Q 15.484375 15.921875 20.484375 11.0625 
Q 25.484375 6.203125 34.421875 6.203125 
Q 39.59375 6.203125 44.453125 7.46875 
Q 49.3125 8.734375 54.109375 11.28125 
L 54.109375 2.78125 
Q 49.265625 0.734375 44.1875 -0.34375 
Q 39.109375 -1.421875 33.890625 -1.421875 
Q 20.796875 -1.421875 13.15625 6.1875 
Q 5.515625 13.8125 5.515625 26.8125 
Q 5.515625 40.234375 12.765625 48.109375 
Q 20.015625 56 32.328125 56 
Q 43.359375 56 49.78125 48.890625 
Q 56.203125 41.796875 56.203125 29.59375 
z
M 47.21875 32.234375 
Q 47.125 39.59375 43.09375 43.984375 
Q 39.0625 48.390625 32.421875 48.390625 
Q 24.90625 48.390625 20.390625 44.140625 
Q 15.875 39.890625 15.1875 32.171875 
z
" id="DejaVuSans-65"/>
      <path d="M 54.890625 33.015625 
L 54.890625 0 
L 45.90625 0 
L 45.90625 32.71875 
Q 45.90625 40.484375 42.875 44.328125 
Q 39.84375 48.1875 33.796875 48.1875 
Q 26.515625 48.1875 22.3125 43.546875 
Q 18.109375 38.921875 18.109375 30.90625 
L 18.109375 0 
L 9.078125 0 
L 9.078125 54.6875 
L 18.109375 54.6875 
L 18.109375 46.1875 
Q 21.34375 51.125 25.703125 53.5625 
Q 30.078125 56 35.796875 56 
Q 45.21875 56 50.046875 50.171875 
Q 54.890625 44.34375 54.890625 33.015625 
z
" id="DejaVuSans-6e"/>
      <path d="M 44.28125 53.078125 
L 44.28125 44.578125 
Q 40.484375 46.53125 36.375 47.5 
Q 32.28125 48.484375 27.875 48.484375 
Q 21.1875 48.484375 17.84375 46.4375 
Q 14.5 44.390625 14.5 40.28125 
Q 14.5 37.15625 16.890625 35.375 
Q 19.28125 33.59375 26.515625 31.984375 
L 29.59375 31.296875 
Q 39.15625 29.25 43.1875 25.515625 
Q 47.21875 21.78125 47.21875 15.09375 
Q 47.21875 7.46875 41.1875 3.015625 
Q 35.15625 -1.421875 24.609375 -1.421875 
Q 20.21875 -1.421875 15.453125 -0.5625 
Q 10.6875 0.296875 5.421875 2 
L 5.421875 11.28125 
Q 10.40625 8.6875 15.234375 7.390625 
Q 20.0625 6.109375 24.8125 6.109375 
Q 31.15625 6.109375 34.5625 8.28125 
Q 37.984375 10.453125 37.984375 14.40625 
Q 37.984375 18.0625 35.515625 20.015625 
Q 33.0625 21.96875 24.703125 23.78125 
L 21.578125 24.515625 
Q 13.234375 26.265625 9.515625 29.90625 
Q 5.8125 33.546875 5.8125 39.890625 
Q 5.8125 47.609375 11.28125 51.796875 
Q 16.75 56 26.8125 56 
Q 31.78125 56 36.171875 55.265625 
Q 40.578125 54.546875 44.28125 53.078125 
z
" id="DejaVuSans-73"/>
      <path d="M 30.609375 48.390625 
Q 23.390625 48.390625 19.1875 42.75 
Q 14.984375 37.109375 14.984375 27.296875 
Q 14.984375 17.484375 19.15625 11.84375 
Q 23.34375 6.203125 30.609375 6.203125 
Q 37.796875 6.203125 41.984375 11.859375 
Q 46.1875 17.53125 46.1875 27.296875 
Q 46.1875 37.015625 41.984375 42.703125 
Q 37.796875 48.390625 30.609375 48.390625 
z
M 30.609375 56 
Q 42.328125 56 49.015625 48.375 
Q 55.71875 40.765625 55.71875 27.296875 
Q 55.71875 13.875 49.015625 6.21875 
Q 42.328125 -1.421875 30.609375 -1.421875 
Q 18.84375 -1.421875 12.171875 6.21875 
Q 5.515625 13.875 5.515625 27.296875 
Q 5.515625 40.765625 12.171875 48.375 
Q 18.84375 56 30.609375 56 
z
" id="DejaVuSans-6f"/>
     </defs>
     <g transform="translate(151.99125 387.21125)scale(0.16 -0.16)">
      <use xlink:href="#DejaVuSans-53"/>
      <use x="63.476562" xlink:href="#DejaVuSans-56"/>
      <use x="131.884766" xlink:href="#DejaVuSans-44"/>
      <use x="208.886719" xlink:href="#DejaVuSans-20"/>
      <use x="240.673828" xlink:href="#DejaVuSans-44"/>
      <use x="317.675781" xlink:href="#DejaVuSans-69"/>
      <use x="345.458984" xlink:href="#DejaVuSans-6d"/>
      <use x="442.871094" xlink:href="#DejaVuSans-65"/>
      <use x="504.394531" xlink:href="#DejaVuSans-6e"/>
      <use x="567.773438" xlink:href="#DejaVuSans-73"/>
      <use x="619.873047" xlink:href="#DejaVuSans-69"/>
      <use x="647.65625" xlink:href="#DejaVuSans-6f"/>
      <use x="708.837891" xlink:href="#DejaVuSans-6e"/>
      <use x="772.216797" xlink:href="#DejaVuSans-20"/>
      <use x="804.003906" xlink:href="#DejaVuSans-31"/>
     </g>
    </g>
   </g>
   <g id="matplotlib.axis_2">
    <g id="ytick_1">
     <g id="line2d_5">
      <defs>
       <path d="M 0 0 
L -3.5 0 
" id="md0a6189d6b" style="stroke:#000000;stroke-width:0.8;"/>
      </defs>
      <g>
       <use style="stroke:#000000;stroke-width:0.8;" x="54" xlink:href="#md0a6189d6b" y="324.255047"/>
      </g>
     </g>
     <g id="text_6">
      <!-- -0.10 -->
      <g transform="translate(15.951875 328.814109)scale(0.12 -0.12)">
       <use xlink:href="#DejaVuSans-2d"/>
       <use x="36.083984" xlink:href="#DejaVuSans-30"/>
       <use x="99.707031" xlink:href="#DejaVuSans-2e"/>
       <use x="131.494141" xlink:href="#DejaVuSans-31"/>
       <use x="195.117188" xlink:href="#DejaVuSans-30"/>
      </g>
     </g>
    </g>
    <g id="ytick_2">
     <g id="line2d_6">
      <g>
       <use style="stroke:#000000;stroke-width:0.8;" x="54" xlink:href="#md0a6189d6b" y="256.093984"/>
      </g>
     </g>
     <g id="text_7">
      <!-- -0.05 -->
      <g transform="translate(15.951875 260.653046)scale(0.12 -0.12)">
       <use xlink:href="#DejaVuSans-2d"/>
       <use x="36.083984" xlink:href="#DejaVuSans-30"/>
       <use x="99.707031" xlink:href="#DejaVuSans-2e"/>
       <use x="131.494141" xlink:href="#DejaVuSans-30"/>
       <use x="195.117188" xlink:href="#DejaVuSans-35"/>
      </g>
     </g>
    </g>
    <g id="ytick_3">
     <g id="line2d_7">
      <g>
       <use style="stroke:#000000;stroke-width:0.8;" x="54" xlink:href="#md0a6189d6b" y="187.932921"/>
      </g>
     </g>
     <g id="text_8">
      <!-- 0 -->
      <g transform="translate(39.365 192.491983)scale(0.12 -0.12)">
       <use xlink:href="#DejaVuSans-30"/>
      </g>
     </g>
    </g>
    <g id="ytick_4">
     <g id="line2d_8">
      <g>
       <use style="stroke:#000000;stroke-width:0.8;" x="54" xlink:href="#md0a6189d6b" y="119.771858"/>
      </g>
     </g>
     <g id="text_9">
      <!-- 0.05 -->
      <g transform="translate(20.28125 124.33092)scale(0.12 -0.12)">
       <use xlink:href="#DejaVuSans-30"/>
       <use x="63.623047" xlink:href="#DejaVuSans-2e"/>
       <use x="95.410156" xlink:href="#DejaVuSans-30"/>
       <use x="159.033203" xlink:href="#DejaVuSans-35"/>
      </g>
     </g>
    </g>
    <g id="ytick_5">
     <g id="line2d_9">
      <g>
       <use style="stroke:#000000;stroke-width:0.8;" x="54" xlink:href="#md0a6189d6b" y="51.610795"/>
      </g>
     </g>
     <g id="text_10">
      <!-- 0.10 -->
      <g transform="translate(20.28125 56.169857)scale(0.12 -0.12)">
       <use xlink:href="#DejaVuSans-30"/>
       <use x="63.623047" xlink:href="#DejaVuSans-2e"/>
       <use x="95.410156" xlink:href="#DejaVuSans-31"/>
       <use x="159.033203" xlink:href="#DejaVuSans-30"/>
      </g>
     </g>
    </g>
    <g id="text_11">
     <!-- SVD Dimension 2 -->
     <defs>
      <path d="M 19.1875 8.296875 
L 53.609375 8.296875 
L 53.609375 0 
L 7.328125 0 
L 7.328125 8.296875 
Q 12.9375 14.109375 22.625 23.890625 
Q 32.328125 33.6875 34.8125 36.53125 
Q 39.546875 41.84375 41.421875 45.53125 
Q 43.3125 49.21875 43.3125 52.78125 
Q 43.3125 58.59375 39.234375 62.25 
Q 35.15625 65.921875 28.609375 65.921875 
Q 23.96875 65.921875 18.8125 64.3125 
Q 13.671875 62.703125 7.8125 59.421875 
L 7.8125 69.390625 
Q 13.765625 71.78125 18.9375 73 
Q 24.125 74.21875 28.421875 74.21875 
Q 39.75 74.21875 46.484375 68.546875 
Q 53.21875 62.890625 53.21875 53.421875 
Q 53.21875 48.921875 51.53125 44.890625 
Q 49.859375 40.875 45.40625 35.40625 
Q 44.1875 33.984375 37.640625 27.21875 
Q 31.109375 20.453125 19.1875 8.296875 
z
" id="DejaVuSans-32"/>
     </defs>
     <g transform="translate(8.624375 269.38875)rotate(-90)scale(0.16 -0.16)">
      <use xlink:href="#DejaVuSans-53"/>
      <use x="63.476562" xlink:href="#DejaVuSans-56"/>
      <use x="131.884766" xlink:href="#DejaVuSans-44"/>
      <use x="208.886719" xlink:href="#DejaVuSans-20"/>
      <use x="240.673828" xlink:href="#DejaVuSans-44"/>
      <use x="317.675781" xlink:href="#DejaVuSans-69"/>
      <use x="345.458984" xlink:href="#DejaVuSans-6d"/>
      <use x="442.871094" xlink:href="#DejaVuSans-65"/>
      <use x="504.394531" xlink:href="#DejaVuSans-6e"/>
      <use x="567.773438" xlink:href="#DejaVuSans-73"/>
      <use x="619.873047" xlink:href="#DejaVuSans-69"/>
      <use x="647.65625" xlink:href="#DejaVuSans-6f"/>
      <use x="708.837891" xlink:href="#DejaVuSans-6e"/>
      <use x="772.216797" xlink:href="#DejaVuSans-20"/>
      <use x="804.003906" xlink:href="#DejaVuSans-32"/>
     </g>
    </g>
   </g>
   <g id="line2d_10">
    <defs>
     <path d="M 0 3 
C 0.795609 3 1.55874 2.683901 2.12132 2.12132 
C 2.683901 1.55874 3 0.795609 3 0 
C 3 -0.795609 2.683901 -1.55874 2.12132 -2.12132 
C 1.55874 -2.683901 0.795609 -3 0 -3 
C -0.795609 -3 -1.55874 -2.683901 -2.12132 -2.12132 
C -2.683901 -1.55874 -3 -0.795609 -3 0 
C -3 0.795609 -2.683901 1.55874 -2.12132 2.12132 
C -1.55874 2.683901 -0.795609 3 0 3 
z
" id="m6a3b30e584" style="stroke:#000000;"/>
    </defs>
    <g clip-path="url(#p899766a425)">
     <use style="stroke:#000000;" x="101.469526" xlink:href="#m6a3b30e584" y="230.501957"/>
     <use style="stroke:#000000;" x="325.783039" xlink:href="#m6a3b30e584" y="118.939479"/>
     <use style="stroke:#000000;" x="82.301849" xlink:href="#m6a3b30e584" y="224.10128"/>
     <use style="stroke:#000000;" x="357.198982" xlink:href="#m6a3b30e584" y="151.717086"/>
     <use style="stroke:#000000;" x="172.432534" xlink:href="#m6a3b30e584" y="204.678466"/>
     <use style="stroke:#000000;" x="150.745295" xlink:href="#m6a3b30e584" y="272.491088"/>
     <use style="stroke:#000000;" x="95.192547" xlink:href="#m6a3b30e584" y="177.760989"/>
     <use style="stroke:#000000;" x="105.859426" xlink:href="#m6a3b30e584" y="247.466875"/>
     <use style="stroke:#000000;" x="281.808227" xlink:href="#m6a3b30e584" y="209.874885"/>
     <use style="stroke:#000000;" x="185.219586" xlink:href="#m6a3b30e584" y="319.734013"/>
     <use style="stroke:#000000;" x="118.356174" xlink:href="#m6a3b30e584" y="85.085895"/>
     <use style="stroke:#000000;" x="89.06828" xlink:href="#m6a3b30e584" y="197.909323"/>
     <use style="stroke:#000000;" x="117.822158" xlink:href="#m6a3b30e584" y="91.834661"/>
     <use style="stroke:#000000;" x="110.372838" xlink:href="#m6a3b30e584" y="99.036359"/>
     <use style="stroke:#000000;" x="219.92177" xlink:href="#m6a3b30e584" y="88.879145"/>
     <use style="stroke:#000000;" x="175.451716" xlink:href="#m6a3b30e584" y="92.421069"/>
     <use style="stroke:#000000;" x="89.603488" xlink:href="#m6a3b30e584" y="198.609911"/>
     <use style="stroke:#000000;" x="110.543745" xlink:href="#m6a3b30e584" y="96.745976"/>
     <use style="stroke:#000000;" x="305.375637" xlink:href="#m6a3b30e584" y="151.452667"/>
     <use style="stroke:#000000;" x="373.581818" xlink:href="#m6a3b30e584" y="165.352622"/>
     <use style="stroke:#000000;" x="88.944239" xlink:href="#m6a3b30e584" y="156.536531"/>
     <use style="stroke:#000000;" x="217.937195" xlink:href="#m6a3b30e584" y="322.921956"/>
     <use style="stroke:#000000;" x="105.695935" xlink:href="#m6a3b30e584" y="206.123176"/>
     <use style="stroke:#000000;" x="158.632674" xlink:href="#m6a3b30e584" y="289.169688"/>
     <use style="stroke:#000000;" x="107.402481" xlink:href="#m6a3b30e584" y="142.104286"/>
     <use style="stroke:#000000;" x="330.294314" xlink:href="#m6a3b30e584" y="127.299762"/>
     <use style="stroke:#000000;" x="312.082958" xlink:href="#m6a3b30e584" y="216.440282"/>
     <use style="stroke:#000000;" x="276.619634" xlink:href="#m6a3b30e584" y="214.785599"/>
     <use style="stroke:#000000;" x="185.520426" xlink:href="#m6a3b30e584" y="316.967005"/>
     <use style="stroke:#000000;" x="314.713431" xlink:href="#m6a3b30e584" y="196.727159"/>
     <use style="stroke:#000000;" x="88.26386" xlink:href="#m6a3b30e584" y="219.612657"/>
     <use style="stroke:#000000;" x="106.493468" xlink:href="#m6a3b30e584" y="155.610175"/>
     <use style="stroke:#000000;" x="161.295116" xlink:href="#m6a3b30e584" y="179.66842"/>
     <use style="stroke:#000000;" x="120.494378" xlink:href="#m6a3b30e584" y="215.335652"/>
     <use style="stroke:#000000;" x="104.659599" xlink:href="#m6a3b30e584" y="106.574564"/>
     <use style="stroke:#000000;" x="83.973357" xlink:href="#m6a3b30e584" y="173.296881"/>
     <use style="stroke:#000000;" x="188.32549" xlink:href="#m6a3b30e584" y="241.108862"/>
     <use style="stroke:#000000;" x="106.976771" xlink:href="#m6a3b30e584" y="101.304945"/>
     <use style="stroke:#000000;" x="119.346923" xlink:href="#m6a3b30e584" y="93.734217"/>
     <use style="stroke:#000000;" x="129.961117" xlink:href="#m6a3b30e584" y="260.851206"/>
     <use style="stroke:#000000;" x="194.348369" xlink:href="#m6a3b30e584" y="317.978494"/>
     <use style="stroke:#000000;" x="207.651916" xlink:href="#m6a3b30e584" y="85.128727"/>
     <use style="stroke:#000000;" x="354.867637" xlink:href="#m6a3b30e584" y="130.029877"/>
     <use style="stroke:#000000;" x="264.005551" xlink:href="#m6a3b30e584" y="249.654673"/>
     <use style="stroke:#000000;" x="235.197934" xlink:href="#m6a3b30e584" y="173.589664"/>
     <use style="stroke:#000000;" x="106.760573" xlink:href="#m6a3b30e584" y="97.975511"/>
     <use style="stroke:#000000;" x="211.283162" xlink:href="#m6a3b30e584" y="324.786557"/>
     <use style="stroke:#000000;" x="89.659931" xlink:href="#m6a3b30e584" y="212.823081"/>
     <use style="stroke:#000000;" x="235.074731" xlink:href="#m6a3b30e584" y="297.328641"/>
     <use style="stroke:#000000;" x="247.323948" xlink:href="#m6a3b30e584" y="121.82703"/>
     <use style="stroke:#000000;" x="210.126961" xlink:href="#m6a3b30e584" y="66.541492"/>
     <use style="stroke:#000000;" x="266.507272" xlink:href="#m6a3b30e584" y="226.597198"/>
     <use style="stroke:#000000;" x="334.539826" xlink:href="#m6a3b30e584" y="130.726554"/>
     <use style="stroke:#000000;" x="161.782111" xlink:href="#m6a3b30e584" y="311.735132"/>
     <use style="stroke:#000000;" x="339.062621" xlink:href="#m6a3b30e584" y="139.315782"/>
     <use style="stroke:#000000;" x="203.348393" xlink:href="#m6a3b30e584" y="291.207036"/>
     <use style="stroke:#000000;" x="103.069998" xlink:href="#m6a3b30e584" y="219.155601"/>
     <use style="stroke:#000000;" x="79.805986" xlink:href="#m6a3b30e584" y="171.547586"/>
     <use style="stroke:#000000;" x="121.21" xlink:href="#m6a3b30e584" y="91.212617"/>
     <use style="stroke:#000000;" x="361.912264" xlink:href="#m6a3b30e584" y="180.069917"/>
     <use style="stroke:#000000;" x="239.202041" xlink:href="#m6a3b30e584" y="296.99085"/>
     <use style="stroke:#000000;" x="352.597865" xlink:href="#m6a3b30e584" y="111.79455"/>
     <use style="stroke:#000000;" x="322.12151" xlink:href="#m6a3b30e584" y="187.56381"/>
     <use style="stroke:#000000;" x="234.438312" xlink:href="#m6a3b30e584" y="246.047995"/>
     <use style="stroke:#000000;" x="373.108508" xlink:href="#m6a3b30e584" y="163.691944"/>
     <use style="stroke:#000000;" x="225.096863" xlink:href="#m6a3b30e584" y="249.649943"/>
     <use style="stroke:#000000;" x="209.80054" xlink:href="#m6a3b30e584" y="236.650346"/>
     <use style="stroke:#000000;" x="101.42862" xlink:href="#m6a3b30e584" y="171.302999"/>
     <use style="stroke:#000000;" x="119.895574" xlink:href="#m6a3b30e584" y="98.612882"/>
     <use style="stroke:#000000;" x="317.331888" xlink:href="#m6a3b30e584" y="131.129277"/>
     <use style="stroke:#000000;" x="122.863278" xlink:href="#m6a3b30e584" y="91.258428"/>
     <use style="stroke:#000000;" x="175.608141" xlink:href="#m6a3b30e584" y="196.831046"/>
     <use style="stroke:#000000;" x="152.232716" xlink:href="#m6a3b30e584" y="242.208661"/>
     <use style="stroke:#000000;" x="210.830649" xlink:href="#m6a3b30e584" y="226.93148"/>
     <use style="stroke:#000000;" x="296.7364" xlink:href="#m6a3b30e584" y="213.540934"/>
     <use style="stroke:#000000;" x="95.147854" xlink:href="#m6a3b30e584" y="193.199312"/>
     <use style="stroke:#000000;" x="175.351296" xlink:href="#m6a3b30e584" y="72.707739"/>
     <use style="stroke:#000000;" x="314.017806" xlink:href="#m6a3b30e584" y="218.176632"/>
     <use style="stroke:#000000;" x="93.149612" xlink:href="#m6a3b30e584" y="232.808883"/>
     <use style="stroke:#000000;" x="117.833025" xlink:href="#m6a3b30e584" y="88.318398"/>
     <use style="stroke:#000000;" x="114.275793" xlink:href="#m6a3b30e584" y="99.619455"/>
     <use style="stroke:#000000;" x="216.161814" xlink:href="#m6a3b30e584" y="273.96839"/>
     <use style="stroke:#000000;" x="172.48083" xlink:href="#m6a3b30e584" y="220.711881"/>
     <use style="stroke:#000000;" x="137.673409" xlink:href="#m6a3b30e584" y="79.095682"/>
     <use style="stroke:#000000;" x="272.671617" xlink:href="#m6a3b30e584" y="153.194701"/>
     <use style="stroke:#000000;" x="339.1761" xlink:href="#m6a3b30e584" y="119.59888"/>
     <use style="stroke:#000000;" x="136.664407" xlink:href="#m6a3b30e584" y="74.634164"/>
     <use style="stroke:#000000;" x="182.214171" xlink:href="#m6a3b30e584" y="317.421273"/>
     <use style="stroke:#000000;" x="96.896598" xlink:href="#m6a3b30e584" y="220.619019"/>
     <use style="stroke:#000000;" x="119.588267" xlink:href="#m6a3b30e584" y="100.931116"/>
     <use style="stroke:#000000;" x="365.489974" xlink:href="#m6a3b30e584" y="182.718819"/>
     <use style="stroke:#000000;" x="163.304757" xlink:href="#m6a3b30e584" y="79.431985"/>
     <use style="stroke:#000000;" x="178.986456" xlink:href="#m6a3b30e584" y="338.58"/>
     <use style="stroke:#000000;" x="312.417542" xlink:href="#m6a3b30e584" y="187.212583"/>
     <use style="stroke:#000000;" x="320.170928" xlink:href="#m6a3b30e584" y="206.609646"/>
     <use style="stroke:#000000;" x="154.069807" xlink:href="#m6a3b30e584" y="98.259185"/>
     <use style="stroke:#000000;" x="169.250298" xlink:href="#m6a3b30e584" y="310.88386"/>
     <use style="stroke:#000000;" x="145.774005" xlink:href="#m6a3b30e584" y="298.320445"/>
     <use style="stroke:#000000;" x="320.161775" xlink:href="#m6a3b30e584" y="128.965016"/>
     <use style="stroke:#000000;" x="116.039703" xlink:href="#m6a3b30e584" y="89.747967"/>
     <use style="stroke:#000000;" x="156.523499" xlink:href="#m6a3b30e584" y="76.181909"/>
     <use style="stroke:#000000;" x="95.888494" xlink:href="#m6a3b30e584" y="268.661169"/>
     <use style="stroke:#000000;" x="317.631368" xlink:href="#m6a3b30e584" y="146.371584"/>
     <use style="stroke:#000000;" x="181.717759" xlink:href="#m6a3b30e584" y="78.369531"/>
     <use style="stroke:#000000;" x="234.372113" xlink:href="#m6a3b30e584" y="251.978292"/>
     <use style="stroke:#000000;" x="85.288933" xlink:href="#m6a3b30e584" y="184.064898"/>
     <use style="stroke:#000000;" x="184.958186" xlink:href="#m6a3b30e584" y="318.933854"/>
     <use style="stroke:#000000;" x="125.259121" xlink:href="#m6a3b30e584" y="85.690048"/>
     <use style="stroke:#000000;" x="83.119746" xlink:href="#m6a3b30e584" y="218.443695"/>
     <use style="stroke:#000000;" x="163.092292" xlink:href="#m6a3b30e584" y="77.564761"/>
     <use style="stroke:#000000;" x="111.351786" xlink:href="#m6a3b30e584" y="94.445846"/>
     <use style="stroke:#000000;" x="122.196012" xlink:href="#m6a3b30e584" y="93.231204"/>
     <use style="stroke:#000000;" x="90.936465" xlink:href="#m6a3b30e584" y="218.839921"/>
     <use style="stroke:#000000;" x="103.866057" xlink:href="#m6a3b30e584" y="248.776616"/>
     <use style="stroke:#000000;" x="113.523465" xlink:href="#m6a3b30e584" y="110.467757"/>
     <use style="stroke:#000000;" x="288.74626" xlink:href="#m6a3b30e584" y="157.070343"/>
     <use style="stroke:#000000;" x="83.512344" xlink:href="#m6a3b30e584" y="201.29717"/>
     <use style="stroke:#000000;" x="209.580952" xlink:href="#m6a3b30e584" y="307.301434"/>
     <use style="stroke:#000000;" x="358.637469" xlink:href="#m6a3b30e584" y="185.992692"/>
     <use style="stroke:#000000;" x="157.931815" xlink:href="#m6a3b30e584" y="296.135551"/>
     <use style="stroke:#000000;" x="361.659949" xlink:href="#m6a3b30e584" y="181.432275"/>
     <use style="stroke:#000000;" x="248.216494" xlink:href="#m6a3b30e584" y="220.344137"/>
     <use style="stroke:#000000;" x="167.127327" xlink:href="#m6a3b30e584" y="283.609368"/>
     <use style="stroke:#000000;" x="258.528262" xlink:href="#m6a3b30e584" y="231.013603"/>
     <use style="stroke:#000000;" x="90.553307" xlink:href="#m6a3b30e584" y="159.956511"/>
     <use style="stroke:#000000;" x="130.12418" xlink:href="#m6a3b30e584" y="263.261318"/>
     <use style="stroke:#000000;" x="196.919607" xlink:href="#m6a3b30e584" y="61.38"/>
     <use style="stroke:#000000;" x="155.59528" xlink:href="#m6a3b30e584" y="238.727795"/>
     <use style="stroke:#000000;" x="111.811922" xlink:href="#m6a3b30e584" y="244.907445"/>
     <use style="stroke:#000000;" x="193.296651" xlink:href="#m6a3b30e584" y="324.917556"/>
     <use style="stroke:#000000;" x="303.199951" xlink:href="#m6a3b30e584" y="188.923558"/>
     <use style="stroke:#000000;" x="325.367896" xlink:href="#m6a3b30e584" y="132.299726"/>
     <use style="stroke:#000000;" x="155.497624" xlink:href="#m6a3b30e584" y="80.74285"/>
     <use style="stroke:#000000;" x="79.943371" xlink:href="#m6a3b30e584" y="232.348927"/>
     <use style="stroke:#000000;" x="128.572252" xlink:href="#m6a3b30e584" y="262.576632"/>
     <use style="stroke:#000000;" x="103.768376" xlink:href="#m6a3b30e584" y="110.521408"/>
     <use style="stroke:#000000;" x="197.915897" xlink:href="#m6a3b30e584" y="288.122694"/>
     <use style="stroke:#000000;" x="95.896382" xlink:href="#m6a3b30e584" y="216.025248"/>
     <use style="stroke:#000000;" x="104.613562" xlink:href="#m6a3b30e584" y="103.617287"/>
     <use style="stroke:#000000;" x="91.334234" xlink:href="#m6a3b30e584" y="145.771782"/>
     <use style="stroke:#000000;" x="318.085893" xlink:href="#m6a3b30e584" y="137.519849"/>
     <use style="stroke:#000000;" x="113.133919" xlink:href="#m6a3b30e584" y="219.419681"/>
     <use style="stroke:#000000;" x="100.462508" xlink:href="#m6a3b30e584" y="224.293768"/>
     <use style="stroke:#000000;" x="193.646983" xlink:href="#m6a3b30e584" y="268.585111"/>
     <use style="stroke:#000000;" x="174.504006" xlink:href="#m6a3b30e584" y="94.479772"/>
     <use style="stroke:#000000;" x="373.129631" xlink:href="#m6a3b30e584" y="164.957433"/>
     <use style="stroke:#000000;" x="91.308192" xlink:href="#m6a3b30e584" y="221.164144"/>
     <use style="stroke:#000000;" x="81.678932" xlink:href="#m6a3b30e584" y="211.415861"/>
     <use style="stroke:#000000;" x="276.993488" xlink:href="#m6a3b30e584" y="135.743676"/>
     <use style="stroke:#000000;" x="293.878898" xlink:href="#m6a3b30e584" y="230.248804"/>
     <use style="stroke:#000000;" x="129.819244" xlink:href="#m6a3b30e584" y="86.721605"/>
     <use style="stroke:#000000;" x="178.05873" xlink:href="#m6a3b30e584" y="306.283105"/>
     <use style="stroke:#000000;" x="82.384965" xlink:href="#m6a3b30e584" y="212.120728"/>
     <use style="stroke:#000000;" x="202.415528" xlink:href="#m6a3b30e584" y="205.280624"/>
     <use style="stroke:#000000;" x="353.339501" xlink:href="#m6a3b30e584" y="147.190224"/>
     <use style="stroke:#000000;" x="98.238957" xlink:href="#m6a3b30e584" y="250.631327"/>
     <use style="stroke:#000000;" x="172.133987" xlink:href="#m6a3b30e584" y="74.60244"/>
     <use style="stroke:#000000;" x="262.319746" xlink:href="#m6a3b30e584" y="233.009965"/>
     <use style="stroke:#000000;" x="109.574226" xlink:href="#m6a3b30e584" y="98.476033"/>
     <use style="stroke:#000000;" x="248.905761" xlink:href="#m6a3b30e584" y="287.559912"/>
     <use style="stroke:#000000;" x="97.799599" xlink:href="#m6a3b30e584" y="121.811646"/>
     <use style="stroke:#000000;" x="117.325316" xlink:href="#m6a3b30e584" y="90.887962"/>
     <use style="stroke:#000000;" x="116.786435" xlink:href="#m6a3b30e584" y="86.884337"/>
     <use style="stroke:#000000;" x="115.717265" xlink:href="#m6a3b30e584" y="95.242451"/>
     <use style="stroke:#000000;" x="192.547307" xlink:href="#m6a3b30e584" y="302.856748"/>
     <use style="stroke:#000000;" x="74.436179" xlink:href="#m6a3b30e584" y="210.22876"/>
     <use style="stroke:#000000;" x="206.657854" xlink:href="#m6a3b30e584" y="86.114951"/>
     <use style="stroke:#000000;" x="271.724617" xlink:href="#m6a3b30e584" y="212.826201"/>
     <use style="stroke:#000000;" x="183.61847" xlink:href="#m6a3b30e584" y="318.414371"/>
     <use style="stroke:#000000;" x="147.769053" xlink:href="#m6a3b30e584" y="82.050553"/>
     <use style="stroke:#000000;" x="232.903566" xlink:href="#m6a3b30e584" y="98.007359"/>
     <use style="stroke:#000000;" x="127.660663" xlink:href="#m6a3b30e584" y="219.345534"/>
     <use style="stroke:#000000;" x="227.325955" xlink:href="#m6a3b30e584" y="272.364426"/>
     <use style="stroke:#000000;" x="88.738683" xlink:href="#m6a3b30e584" y="202.170395"/>
     <use style="stroke:#000000;" x="339.078137" xlink:href="#m6a3b30e584" y="120.470494"/>
     <use style="stroke:#000000;" x="114.400663" xlink:href="#m6a3b30e584" y="102.254282"/>
     <use style="stroke:#000000;" x="177.670386" xlink:href="#m6a3b30e584" y="307.167221"/>
     <use style="stroke:#000000;" x="276.491554" xlink:href="#m6a3b30e584" y="240.259372"/>
     <use style="stroke:#000000;" x="127.165226" xlink:href="#m6a3b30e584" y="95.760486"/>
     <use style="stroke:#000000;" x="184.005801" xlink:href="#m6a3b30e584" y="325.849324"/>
     <use style="stroke:#000000;" x="319.130734" xlink:href="#m6a3b30e584" y="119.842366"/>
     <use style="stroke:#000000;" x="108.630474" xlink:href="#m6a3b30e584" y="225.087506"/>
     <use style="stroke:#000000;" x="72.240654" xlink:href="#m6a3b30e584" y="214.419413"/>
     <use style="stroke:#000000;" x="93.868994" xlink:href="#m6a3b30e584" y="220.913295"/>
     <use style="stroke:#000000;" x="192.87586" xlink:href="#m6a3b30e584" y="308.210829"/>
     <use style="stroke:#000000;" x="333.552199" xlink:href="#m6a3b30e584" y="116.986427"/>
     <use style="stroke:#000000;" x="91.356044" xlink:href="#m6a3b30e584" y="225.251907"/>
     <use style="stroke:#000000;" x="131.120199" xlink:href="#m6a3b30e584" y="236.436752"/>
     <use style="stroke:#000000;" x="69.218182" xlink:href="#m6a3b30e584" y="221.205038"/>
     <use style="stroke:#000000;" x="109.136363" xlink:href="#m6a3b30e584" y="130.06394"/>
     <use style="stroke:#000000;" x="108.048128" xlink:href="#m6a3b30e584" y="102.351207"/>
     <use style="stroke:#000000;" x="193.585041" xlink:href="#m6a3b30e584" y="309.566553"/>
     <use style="stroke:#000000;" x="91.933929" xlink:href="#m6a3b30e584" y="185.896989"/>
     <use style="stroke:#000000;" x="105.715489" xlink:href="#m6a3b30e584" y="223.095109"/>
     <use style="stroke:#000000;" x="148.018981" xlink:href="#m6a3b30e584" y="187.734332"/>
     <use style="stroke:#000000;" x="318.611745" xlink:href="#m6a3b30e584" y="132.365033"/>
     <use style="stroke:#000000;" x="84.331862" xlink:href="#m6a3b30e584" y="215.994051"/>
     <use style="stroke:#000000;" x="156.668325" xlink:href="#m6a3b30e584" y="185.230852"/>
     <use style="stroke:#000000;" x="257.31795" xlink:href="#m6a3b30e584" y="249.02327"/>
     <use style="stroke:#000000;" x="196.065913" xlink:href="#m6a3b30e584" y="285.303407"/>
     <use style="stroke:#000000;" x="136.303198" xlink:href="#m6a3b30e584" y="94.782107"/>
     <use style="stroke:#000000;" x="165.218516" xlink:href="#m6a3b30e584" y="305.956686"/>
     <use style="stroke:#000000;" x="178.222863" xlink:href="#m6a3b30e584" y="83.400458"/>
     <use style="stroke:#000000;" x="372.179279" xlink:href="#m6a3b30e584" y="165.531184"/>
     <use style="stroke:#000000;" x="83.74104" xlink:href="#m6a3b30e584" y="168.175779"/>
     <use style="stroke:#000000;" x="117.488781" xlink:href="#m6a3b30e584" y="88.156688"/>
     <use style="stroke:#000000;" x="115.377576" xlink:href="#m6a3b30e584" y="90.700625"/>
     <use style="stroke:#000000;" x="117.465249" xlink:href="#m6a3b30e584" y="92.014224"/>
     <use style="stroke:#000000;" x="160.954384" xlink:href="#m6a3b30e584" y="182.681114"/>
     <use style="stroke:#000000;" x="87.466192" xlink:href="#m6a3b30e584" y="218.798392"/>
     <use style="stroke:#000000;" x="161.692895" xlink:href="#m6a3b30e584" y="232.685717"/>
     <use style="stroke:#000000;" x="163.085112" xlink:href="#m6a3b30e584" y="91.620114"/>
     <use style="stroke:#000000;" x="354.52505" xlink:href="#m6a3b30e584" y="148.059374"/>
     <use style="stroke:#000000;" x="223.668972" xlink:href="#m6a3b30e584" y="320.583373"/>
     <use style="stroke:#000000;" x="177.337442" xlink:href="#m6a3b30e584" y="309.292394"/>
     <use style="stroke:#000000;" x="294.182873" xlink:href="#m6a3b30e584" y="242.057702"/>
     <use style="stroke:#000000;" x="125.230541" xlink:href="#m6a3b30e584" y="226.426484"/>
     <use style="stroke:#000000;" x="185.20165" xlink:href="#m6a3b30e584" y="335.727468"/>
     <use style="stroke:#000000;" x="111.642587" xlink:href="#m6a3b30e584" y="265.260985"/>
     <use style="stroke:#000000;" x="186.494852" xlink:href="#m6a3b30e584" y="328.513471"/>
     <use style="stroke:#000000;" x="100.621531" xlink:href="#m6a3b30e584" y="107.999103"/>
     <use style="stroke:#000000;" x="193.152266" xlink:href="#m6a3b30e584" y="314.172914"/>
     <use style="stroke:#000000;" x="85.165248" xlink:href="#m6a3b30e584" y="174.060425"/>
     <use style="stroke:#000000;" x="86.780198" xlink:href="#m6a3b30e584" y="218.129648"/>
     <use style="stroke:#000000;" x="97.476283" xlink:href="#m6a3b30e584" y="114.451585"/>
     <use style="stroke:#000000;" x="279.445759" xlink:href="#m6a3b30e584" y="194.278217"/>
     <use style="stroke:#000000;" x="83.723008" xlink:href="#m6a3b30e584" y="196.62317"/>
     <use style="stroke:#000000;" x="101.902383" xlink:href="#m6a3b30e584" y="208.389463"/>
     <use style="stroke:#000000;" x="159.936864" xlink:href="#m6a3b30e584" y="308.563636"/>
     <use style="stroke:#000000;" x="246.728338" xlink:href="#m6a3b30e584" y="84.181683"/>
     <use style="stroke:#000000;" x="93.311156" xlink:href="#m6a3b30e584" y="214.39608"/>
     <use style="stroke:#000000;" x="193.568433" xlink:href="#m6a3b30e584" y="179.615975"/>
     <use style="stroke:#000000;" x="116.48043" xlink:href="#m6a3b30e584" y="88.186468"/>
     <use style="stroke:#000000;" x="99.24771" xlink:href="#m6a3b30e584" y="218.544282"/>
     <use style="stroke:#000000;" x="166.899161" xlink:href="#m6a3b30e584" y="291.594381"/>
     <use style="stroke:#000000;" x="165.374439" xlink:href="#m6a3b30e584" y="112.668925"/>
     <use style="stroke:#000000;" x="242.429367" xlink:href="#m6a3b30e584" y="227.020541"/>
     <use style="stroke:#000000;" x="370.183055" xlink:href="#m6a3b30e584" y="169.248083"/>
     <use style="stroke:#000000;" x="304.798324" xlink:href="#m6a3b30e584" y="178.303474"/>
     <use style="stroke:#000000;" x="97.551871" xlink:href="#m6a3b30e584" y="157.379721"/>
     <use style="stroke:#000000;" x="202.552993" xlink:href="#m6a3b30e584" y="267.819579"/>
     <use style="stroke:#000000;" x="254.525389" xlink:href="#m6a3b30e584" y="192.640926"/>
     <use style="stroke:#000000;" x="369.04488" xlink:href="#m6a3b30e584" y="170.736473"/>
     <use style="stroke:#000000;" x="274.966488" xlink:href="#m6a3b30e584" y="217.867324"/>
     <use style="stroke:#000000;" x="112.105552" xlink:href="#m6a3b30e584" y="93.386541"/>
     <use style="stroke:#000000;" x="86.224276" xlink:href="#m6a3b30e584" y="203.714048"/>
     <use style="stroke:#000000;" x="99.07365" xlink:href="#m6a3b30e584" y="149.04161"/>
     <use style="stroke:#000000;" x="69.370648" xlink:href="#m6a3b30e584" y="271.141805"/>
     <use style="stroke:#000000;" x="344.44779" xlink:href="#m6a3b30e584" y="123.061259"/>
     <use style="stroke:#000000;" x="99.305029" xlink:href="#m6a3b30e584" y="110.812366"/>
     <use style="stroke:#000000;" x="97.435563" xlink:href="#m6a3b30e584" y="228.688564"/>
     <use style="stroke:#000000;" x="115.467343" xlink:href="#m6a3b30e584" y="91.777844"/>
     <use style="stroke:#000000;" x="115.425132" xlink:href="#m6a3b30e584" y="94.371453"/>
     <use style="stroke:#000000;" x="130.408076" xlink:href="#m6a3b30e584" y="221.5229"/>
     <use style="stroke:#000000;" x="142.022684" xlink:href="#m6a3b30e584" y="239.544206"/>
     <use style="stroke:#000000;" x="221.727692" xlink:href="#m6a3b30e584" y="266.701987"/>
     <use style="stroke:#000000;" x="196.057511" xlink:href="#m6a3b30e584" y="319.476007"/>
     <use style="stroke:#000000;" x="269.335205" xlink:href="#m6a3b30e584" y="198.06708"/>
     <use style="stroke:#000000;" x="107.085011" xlink:href="#m6a3b30e584" y="100.345753"/>
     <use style="stroke:#000000;" x="78.154837" xlink:href="#m6a3b30e584" y="250.867564"/>
     <use style="stroke:#000000;" x="103.977856" xlink:href="#m6a3b30e584" y="121.030786"/>
     <use style="stroke:#000000;" x="170.381615" xlink:href="#m6a3b30e584" y="88.360084"/>
     <use style="stroke:#000000;" x="119.412491" xlink:href="#m6a3b30e584" y="138.136431"/>
     <use style="stroke:#000000;" x="317.011492" xlink:href="#m6a3b30e584" y="207.919001"/>
     <use style="stroke:#000000;" x="201.533232" xlink:href="#m6a3b30e584" y="161.445029"/>
     <use style="stroke:#000000;" x="80.950629" xlink:href="#m6a3b30e584" y="185.758956"/>
     <use style="stroke:#000000;" x="100.1417" xlink:href="#m6a3b30e584" y="222.946688"/>
     <use style="stroke:#000000;" x="370.637909" xlink:href="#m6a3b30e584" y="175.037198"/>
     <use style="stroke:#000000;" x="107.987552" xlink:href="#m6a3b30e584" y="121.189776"/>
     <use style="stroke:#000000;" x="358.257467" xlink:href="#m6a3b30e584" y="123.395942"/>
     <use style="stroke:#000000;" x="170.457927" xlink:href="#m6a3b30e584" y="303.315458"/>
     <use style="stroke:#000000;" x="118.258401" xlink:href="#m6a3b30e584" y="87.133431"/>
     <use style="stroke:#000000;" x="333.387778" xlink:href="#m6a3b30e584" y="131.648254"/>
     <use style="stroke:#000000;" x="276.223618" xlink:href="#m6a3b30e584" y="213.956164"/>
     <use style="stroke:#000000;" x="158.366523" xlink:href="#m6a3b30e584" y="225.74398"/>
     <use style="stroke:#000000;" x="108.363282" xlink:href="#m6a3b30e584" y="104.305722"/>
     <use style="stroke:#000000;" x="166.363948" xlink:href="#m6a3b30e584" y="316.423772"/>
     <use style="stroke:#000000;" x="99.485438" xlink:href="#m6a3b30e584" y="136.81119"/>
     <use style="stroke:#000000;" x="89.766688" xlink:href="#m6a3b30e584" y="228.319352"/>
     <use style="stroke:#000000;" x="307.279061" xlink:href="#m6a3b30e584" y="222.85739"/>
     <use style="stroke:#000000;" x="106.193125" xlink:href="#m6a3b30e584" y="121.957768"/>
     <use style="stroke:#000000;" x="75.573243" xlink:href="#m6a3b30e584" y="239.690283"/>
     <use style="stroke:#000000;" x="321.816751" xlink:href="#m6a3b30e584" y="135.730461"/>
     <use style="stroke:#000000;" x="146.917418" xlink:href="#m6a3b30e584" y="221.088017"/>
     <use style="stroke:#000000;" x="78.137758" xlink:href="#m6a3b30e584" y="212.848282"/>
     <use style="stroke:#000000;" x="284.350562" xlink:href="#m6a3b30e584" y="111.67368"/>
     <use style="stroke:#000000;" x="121.180729" xlink:href="#m6a3b30e584" y="97.693928"/>
     <use style="stroke:#000000;" x="70.169815" xlink:href="#m6a3b30e584" y="223.750789"/>
     <use style="stroke:#000000;" x="97.498529" xlink:href="#m6a3b30e584" y="157.411038"/>
     <use style="stroke:#000000;" x="137.813764" xlink:href="#m6a3b30e584" y="304.428578"/>
     <use style="stroke:#000000;" x="155.604083" xlink:href="#m6a3b30e584" y="88.148523"/>
     <use style="stroke:#000000;" x="102.482587" xlink:href="#m6a3b30e584" y="102.995018"/>
     <use style="stroke:#000000;" x="81.60645" xlink:href="#m6a3b30e584" y="218.308845"/>
     <use style="stroke:#000000;" x="126.792423" xlink:href="#m6a3b30e584" y="234.437891"/>
     <use style="stroke:#000000;" x="342.011527" xlink:href="#m6a3b30e584" y="131.647436"/>
     <use style="stroke:#000000;" x="178.488769" xlink:href="#m6a3b30e584" y="92.475712"/>
     <use style="stroke:#000000;" x="111.734773" xlink:href="#m6a3b30e584" y="114.711599"/>
     <use style="stroke:#000000;" x="114.61901" xlink:href="#m6a3b30e584" y="93.181401"/>
     <use style="stroke:#000000;" x="85.608247" xlink:href="#m6a3b30e584" y="211.249325"/>
     <use style="stroke:#000000;" x="216.512137" xlink:href="#m6a3b30e584" y="70.46246"/>
     <use style="stroke:#000000;" x="104.540788" xlink:href="#m6a3b30e584" y="222.787795"/>
     <use style="stroke:#000000;" x="275.743221" xlink:href="#m6a3b30e584" y="251.349216"/>
     <use style="stroke:#000000;" x="108.507945" xlink:href="#m6a3b30e584" y="97.145525"/>
     <use style="stroke:#000000;" x="234.079173" xlink:href="#m6a3b30e584" y="258.630929"/>
     <use style="stroke:#000000;" x="131.42539" xlink:href="#m6a3b30e584" y="280.826599"/>
     <use style="stroke:#000000;" x="136.521915" xlink:href="#m6a3b30e584" y="150.434482"/>
     <use style="stroke:#000000;" x="233.233003" xlink:href="#m6a3b30e584" y="300.384995"/>
     <use style="stroke:#000000;" x="141.434348" xlink:href="#m6a3b30e584" y="99.427311"/>
     <use style="stroke:#000000;" x="126.528034" xlink:href="#m6a3b30e584" y="239.50158"/>
     <use style="stroke:#000000;" x="290.015381" xlink:href="#m6a3b30e584" y="227.231506"/>
     <use style="stroke:#000000;" x="120.818066" xlink:href="#m6a3b30e584" y="282.754089"/>
     <use style="stroke:#000000;" x="94.046618" xlink:href="#m6a3b30e584" y="219.525551"/>
     <use style="stroke:#000000;" x="98.974302" xlink:href="#m6a3b30e584" y="218.373462"/>
     <use style="stroke:#000000;" x="165.998621" xlink:href="#m6a3b30e584" y="296.909672"/>
     <use style="stroke:#000000;" x="370.241656" xlink:href="#m6a3b30e584" y="166.510559"/>
     <use style="stroke:#000000;" x="232.319755" xlink:href="#m6a3b30e584" y="279.524126"/>
     <use style="stroke:#000000;" x="278.155158" xlink:href="#m6a3b30e584" y="132.655857"/>
     <use style="stroke:#000000;" x="168.57416" xlink:href="#m6a3b30e584" y="331.246994"/>
     <use style="stroke:#000000;" x="175.746163" xlink:href="#m6a3b30e584" y="187.247276"/>
     <use style="stroke:#000000;" x="107.734551" xlink:href="#m6a3b30e584" y="200.020729"/>
     <use style="stroke:#000000;" x="94.243745" xlink:href="#m6a3b30e584" y="214.758048"/>
     <use style="stroke:#000000;" x="72.223076" xlink:href="#m6a3b30e584" y="200.353111"/>
     <use style="stroke:#000000;" x="113.467691" xlink:href="#m6a3b30e584" y="91.097544"/>
     <use style="stroke:#000000;" x="130.298994" xlink:href="#m6a3b30e584" y="257.464011"/>
     <use style="stroke:#000000;" x="112.060465" xlink:href="#m6a3b30e584" y="87.840591"/>
     <use style="stroke:#000000;" x="195.44883" xlink:href="#m6a3b30e584" y="88.861253"/>
     <use style="stroke:#000000;" x="107.141462" xlink:href="#m6a3b30e584" y="221.134039"/>
     <use style="stroke:#000000;" x="101.503728" xlink:href="#m6a3b30e584" y="256.088091"/>
     <use style="stroke:#000000;" x="80.604146" xlink:href="#m6a3b30e584" y="219.544812"/>
     <use style="stroke:#000000;" x="189.738339" xlink:href="#m6a3b30e584" y="326.361888"/>
     <use style="stroke:#000000;" x="155.358151" xlink:href="#m6a3b30e584" y="82.649916"/>
     <use style="stroke:#000000;" x="292.860971" xlink:href="#m6a3b30e584" y="146.102529"/>
     <use style="stroke:#000000;" x="82.891115" xlink:href="#m6a3b30e584" y="186.614487"/>
     <use style="stroke:#000000;" x="282.230679" xlink:href="#m6a3b30e584" y="126.345608"/>
     <use style="stroke:#000000;" x="368.945247" xlink:href="#m6a3b30e584" y="168.305562"/>
     <use style="stroke:#000000;" x="109.472927" xlink:href="#m6a3b30e584" y="236.469187"/>
     <use style="stroke:#000000;" x="296.486449" xlink:href="#m6a3b30e584" y="258.841259"/>
     <use style="stroke:#000000;" x="212.722672" xlink:href="#m6a3b30e584" y="182.994162"/>
     <use style="stroke:#000000;" x="366.492129" xlink:href="#m6a3b30e584" y="162.240116"/>
     <use style="stroke:#000000;" x="112.426857" xlink:href="#m6a3b30e584" y="88.335801"/>
     <use style="stroke:#000000;" x="233.939753" xlink:href="#m6a3b30e584" y="244.493923"/>
     <use style="stroke:#000000;" x="294.90923" xlink:href="#m6a3b30e584" y="163.869433"/>
     <use style="stroke:#000000;" x="89.521683" xlink:href="#m6a3b30e584" y="212.389404"/>
    </g>
   </g>
   <g id="patch_3">
    <path d="M 54 352.44 
L 54 47.52 
" style="fill:none;stroke:#000000;stroke-linecap:square;stroke-linejoin:miter;stroke-width:0.8;"/>
   </g>
   <g id="patch_4">
    <path d="M 388.8 352.44 
L 388.8 47.52 
" style="fill:none;stroke:#000000;stroke-linecap:square;stroke-linejoin:miter;stroke-width:0.8;"/>
   </g>
   <g id="patch_5">
    <path d="M 54 352.44 
L 388.8 352.44 
" style="fill:none;stroke:#000000;stroke-linecap:square;stroke-linejoin:miter;stroke-width:0.8;"/>
   </g>
   <g id="patch_6">
    <path d="M 54 47.52 
L 388.8 47.52 
" style="fill:none;stroke:#000000;stroke-linecap:square;stroke-linejoin:miter;stroke-width:0.8;"/>
   </g>
  </g>
 </g>
 <defs>
  <clipPath id="p899766a425">
   <rect height="304.92" width="334.8" x="54" y="47.52"/>
  </clipPath>
 </defs>
</svg>
